<?xml version="1.0" standalone="no"?><!DOCTYPE svg PUBLIC "-//W3C//DTD SVG 1.1//EN" "http://www.w3.org/Graphics/SVG/1.1/DTD/svg11.dtd"><svg class="icon" width="200px" height="200.00px" viewBox="0 0 1024 1024" version="1.1" xmlns="http://www.w3.org/2000/svg"><path d="M394.496 506.2144m-307.2 0a307.2 307.2 0 1 0 614.4 0 307.2 307.2 0 1 0-614.4 0Z" fill="#9FDFFF" /><path d="M747.52 710.6048m-271.36 0a271.36 271.36 0 1 0 542.72 0 271.36 271.36 0 1 0-542.72 0Z" fill="#78CCFF" /><path d="M250.88 736.2048m-245.76 0a245.76 245.76 0 1 0 491.52 0 245.76 245.76 0 1 0-491.52 0Z" fill="#78CCFF" /><path d="M248.32 736.2048h496.64v245.76h-496.64z" fill="#78CCFF" /></svg>